M48
; DRILL file {KiCad (5.1.2)-2} date 2019/07/18 15:21:21
; FORMAT={-:-/ absolute / metric / decimal}
; #@! TF.CreationDate,2019-07-18T15:21:21+09:00
; #@! TF.GenerationSoftware,Kicad,Pcbnew,(5.1.2)-2
FMAT,2
METRIC
T1C0.400
T2C0.600
T3C0.850
T4C0.890
T5C0.900
T6C1.000
T7C1.100
T8C1.600
T9C3.200
T10C3.200
T11C3.250
T12C4.300
%
G90
G05
T1
X2.08Y19.952
X3.383Y18.522
X4.257Y25.659
X4.272Y27.158
X4.272Y23.983
X4.399Y17.633
X4.653Y13.188
X4.653Y6.584
X4.78Y22.84
X5.415Y16.617
X6.622Y20.046
X6.622Y18.712
X6.685Y58.273
X6.685Y54.463
X6.685Y53.193
X6.876Y37.254
X6.876Y36.048
X6.939Y38.588
X6.939Y30.46
X6.939Y25.761
X8.172Y47.478
X8.209Y42.461
X8.209Y13.251
X9.67Y55.733
X9.733Y18.649
X9.86Y54.463
X9.86Y53.193
X9.86Y20.173
X9.987Y37.318
X9.987Y36.048
X10.368Y17.506
X10.414Y34.747
X10.559Y51.923
X10.622Y21.316
X10.876Y58.273
X11.511Y53.574
X11.638Y36.048
X11.765Y38.588
X11.765Y21.316
X12.146Y18.649
X13.67Y47.351
X13.67Y42.461
X13.988Y13.315
X14.813Y30.46
X14.813Y25.761
X15.067Y18.903
X16.083Y58.4
X16.083Y57.003
X16.21Y47.351
X16.21Y45.192
X16.21Y43.16
X17.48Y17.506
X17.584Y36.38
X17.607Y53.32
X17.607Y34.778
X17.671Y51.923
X17.734Y14.966
X17.734Y13.315
X17.734Y6.457
X17.861Y30.46
X17.861Y27.983
X17.861Y25.761
X17.861Y18.903
X22.306Y15.982
X24.084Y41.255
X24.211Y47.097
X24.211Y44.303
X24.338Y15.982
X24.465Y33.0
X24.465Y27.729
X24.465Y25.761
X24.465Y18.776
X24.465Y13.061
X24.529Y37.064
X24.529Y35.667
X24.529Y31.603
X24.529Y29.38
X24.846Y23.983
X26.18Y37.064
X26.18Y23.983
X26.624Y58.019
X27.704Y37.064
X27.704Y24.046
X28.91Y58.4
X28.91Y41.128
X28.91Y15.982
X28.974Y31.603
X28.974Y29.38
X29.037Y55.733
X29.037Y47.224
X29.037Y44.43
X29.037Y18.776
X29.037Y13.061
X29.164Y24.237
X29.355Y37.064
X30.815Y58.4
X30.815Y55.733
X30.815Y15.982
X30.942Y47.253
X30.947Y44.399
X31.196Y38.905
X32.847Y58.476
X32.847Y57.46
X32.847Y56.393
X33.101Y4.298
X33.99Y38.969
X33.99Y34.524
X34.117Y43.287
X34.328Y9.421
X35.641Y43.35
X35.705Y34.651
X35.885Y3.002
X36.17Y6.452
X37.038Y38.969
X37.165Y43.16
X37.419Y34.651
X37.47Y64.75
X37.47Y63.48
X37.47Y62.21
X37.47Y60.965
X37.694Y8.636
X37.737Y12.362
X38.88Y43.287
X38.892Y60.94
X39.096Y64.75
X39.197Y34.651
X39.324Y39.096
X40.196Y41.001
X40.213Y60.94
X40.467Y64.75
X41.149Y41.953
X41.737Y64.75
X41.737Y62.845
X41.737Y60.94
X42.365Y23.559
X42.365Y21.062
X42.563Y40.683
X43.007Y62.845
X43.007Y60.94
X43.134Y64.75
X43.515Y39.35
X43.515Y15.982
X43.642Y37.318
X43.642Y36.048
X43.769Y34.778
X43.932Y25.126
X45.039Y26.233
X49.23Y16.236
X49.357Y18.776
X50.373Y18.776
X50.373Y16.236
X51.643Y57.13
X52.278Y41.255
X52.405Y39.35
X54.691Y14.077
X54.818Y16.109
X55.616Y27.49
X56.286Y8.89
X56.787Y29.19
X56.787Y15.093
X57.639Y11.279
X58.491Y14.478
X59.03Y13.636
X59.154Y25.761
X59.263Y16.109
X59.995Y22.098
X60.147Y2.896
X60.517Y8.489
X61.316Y15.24
X61.74Y25.57
X61.74Y16.68
X62.557Y13.25
X62.57Y27.183
X63.327Y34.016
X63.377Y13.823
X63.391Y28.465
X64.102Y12.553
X64.534Y38.969
X64.534Y30.904
X64.826Y4.917
X64.851Y1.123
X65.677Y6.203
X66.121Y22.586
X66.248Y21.062
X66.253Y14.812
X67.017Y21.861
X67.056Y17.628
X67.137Y2.52
X67.137Y3.663
X67.201Y7.473
X67.201Y11.219
X67.201Y10.013
X67.639Y24.11
X68.343Y23.385
X69.296Y30.142
X70.376Y30.142
X71.582Y30.142
X71.836Y43.16
X72.725Y1.123
X72.852Y30.142
X73.487Y52.304
X74.122Y30.142
X74.249Y61.892
X75.519Y30.142
X77.551Y40.112
X77.551Y28.465
X77.561Y39.112
X78.313Y37.445
X78.694Y40.62
X79.408Y43.033
X82.377Y41.89
X82.377Y1.123
X83.965Y18.649
X84.409Y46.335
X84.536Y40.62
X84.536Y39.096
X85.171Y34.524
X86.06Y40.62
X86.06Y39.096
X86.378Y34.524
X86.92Y25.253
X86.92Y17.696
X87.203Y1.123
X87.775Y15.283
X87.823Y27.493
X88.129Y35.984
X88.549Y39.348
X88.981Y40.849
X89.616Y3.282
X89.692Y37.018
X90.124Y42.906
X90.124Y41.419
X90.301Y40.112
X90.315Y13.188
X90.317Y33.807
X91.902Y31.603
X91.902Y14.394
X91.902Y1.504
X93.49Y37.381
X93.781Y38.969
X94.422Y48.875
X94.696Y43.287
X95.384Y52.082
X96.002Y59.949
X96.601Y1.504
X104.196Y59.731
X104.328Y16.622
X105.329Y8.26
X105.374Y62.575
X106.064Y23.993
X106.597Y26.332
X106.792Y61.001
X107.322Y20.427
X107.46Y4.425
X107.662Y27.088
X108.158Y27.983
X108.476Y32.873
X108.484Y4.425
X108.984Y64.877
X109.428Y9.849
X109.492Y4.425
X109.619Y29.126
X111.397Y57.066
X111.397Y18.458
X111.397Y9.06
X111.397Y5.822
X112.007Y35.332
X112.108Y42.398
X112.603Y7.727
X113.365Y48.303
X113.894Y67.407
X114.064Y35.095
X115.143Y56.431
X116.159Y56.495
X117.048Y25.697
X117.048Y18.141
X118.318Y28.491
X119.08Y42.144
X119.144Y35.032
X119.207Y26.967
X119.652Y20.427
X120.922Y6.965
X120.924Y34.808
X120.985Y59.924
X123.208Y34.841
X123.525Y50.018
X123.525Y3.88
X124.732Y19.284
X124.734Y32.868
X124.986Y41.826
X125.049Y35.032
X125.811Y49.891
X125.933Y13.868
X126.614Y62.078
X126.624Y23.303
X126.924Y5.822
X127.146Y37.795
X127.596Y23.066
X127.843Y69.83
X128.116Y4.605
X128.27Y22.047
X129.865Y27.852
X129.896Y35.204
X130.435Y28.675
X130.607Y29.718
X131.409Y23.165
X132.127Y28.272
X132.867Y40.803
X132.872Y2.362
X133.495Y50.223
X133.685Y16.236
X133.861Y32.926
X135.654Y55.468
X136.51Y60.747
X136.924Y10.267
X137.099Y24.544
X137.495Y4.488
X138.115Y32.99
X138.321Y54.78
X138.333Y53.268
X138.575Y4.488
X138.829Y48.938
X139.519Y3.591
X139.765Y48.175
X139.845Y54.78
X139.845Y53.32
X140.035Y45.954
X140.861Y10.267
X141.94Y20.236
X143.274Y44.493
X147.188Y65.562
X147.655Y13.759
X148.417Y16.236
X150.316Y55.16
X150.558Y56.678
T3
X155.446Y59.305
X155.446Y54.305
T4
X78.719Y65.453
X81.259Y66.973
X88.829Y65.453
X91.369Y66.973
T5
X80.599Y53.193
X81.869Y55.733
X83.139Y53.193
X84.409Y55.733
X85.679Y53.193
X86.949Y55.733
X88.219Y53.193
X89.489Y55.733
T6
X117.112Y10.902
X119.652Y10.902
X122.192Y10.902
X124.732Y10.902
X146.004Y46.97
X146.004Y44.43
X146.004Y41.89
X146.004Y39.35
X146.004Y36.81
X146.004Y34.27
X146.004Y31.73
X146.004Y29.19
X104.158Y51.732
X104.158Y49.192
X106.698Y51.732
X106.698Y49.192
X97.744Y42.906
X97.744Y40.366
X97.744Y37.826
X97.744Y35.286
X97.744Y32.746
X97.744Y30.206
X97.744Y27.666
X97.744Y25.126
X150.216Y50.038
X152.756Y50.038
X53.751Y35.58
X56.291Y35.58
X58.831Y35.58
X61.371Y35.58
X146.004Y25.126
X146.004Y22.586
X146.004Y20.046
X146.004Y17.506
X146.004Y14.966
X146.004Y12.426
X146.004Y9.886
X146.004Y7.346
T7
X150.736Y36.346
X150.736Y33.606
X150.736Y30.866
X150.736Y28.126
X150.736Y25.386
X153.576Y34.976
X153.576Y32.236
X153.576Y29.496
X153.576Y26.756
X135.299Y65.591
X137.799Y65.591
X140.299Y65.591
X142.799Y65.591
X145.299Y65.591
X112.561Y65.566
X115.061Y65.566
X117.561Y65.566
X120.061Y65.566
X122.561Y65.566
X125.061Y65.566
X54.172Y65.621
X56.672Y65.621
X59.172Y65.621
X61.672Y65.621
X64.172Y65.621
X66.672Y65.621
X69.172Y65.621
X99.4Y65.882
X101.9Y65.882
T8
X24.118Y63.018
X29.118Y63.018
X34.118Y63.018
X39.118Y63.018
X77.269Y59.023
X92.819Y59.023
T9
X152.156Y43.361
X152.156Y18.371
T10
X97.724Y56.891
X11.13Y45.065
X130.764Y4.806
X11.13Y28.174
T11
X79.329Y62.073
X90.759Y62.073
T12
X152.672Y5.695
X10.876Y5.695
X11.067Y65.639
X152.481Y65.639
T2
G00X157.796Y60.305
M15
G01X158.496Y60.305
M16
G05
G00X158.496Y53.305
M15
G01X157.796Y53.305
M16
G05
T0
M30
